# xmcd
#
# Track frame offsets: 
#        150
#        14365
#        25915
#        48223
#        61504
#        79365
#        91144
#        103430
#        119224
#        141060
#        156028
#        170649
#        184948
#        201076
#        218211
#        229936
#
# Disc length: 3232 seconds
#
# Revision: 1
# Processed by: cddbd v1.5.2PL0 Copyright (c) Steve Scherf et al.
# Submitted via: ExactAudioCopyFreeDBPlugin 1.0
#
DISCID=e00c9e10
DTITLE=Various Artist - THE ULTIMATE COUNTRY COLLECTION CD02
DYEAR=1900
DGENRE=Country
TTITLE0=Randy Travis - On The Other Hand
TTITLE1=Travis Tritt - Here's A Quarter
TTITLE2=Chris Le Doux - Tougher Than The Rest
TTITLE3=Tanya Tucker - San Antonio Stroll
TTITLE4=Linda Ronstadt - Blue Bayou
TTITLE5=Lacy J Dalton - Love Hurts
TTITLE6=Del Reeves and Billie Jo Spears - Let Your Love Flow
TTITLE7=Suzy Boguss - Moment Of Truth
TTITLE8=Deana Carter - Strawberry Wine
TTITLE9=Billy Dean - Somewhere In My Broken Heart
TTITLE10=Dean Miller - Dreams
TTITLE11=Lee Greenwood - We're Both To Blame
TTITLE12=Pirates Of Mississipi - I Take My Comfort in You
TTITLE13=Nitty Gritty Dirt Band - All I Have To Do Is Dream
TTITLE14=Tennessee Ernie Ford - Sixteen Tons
TTITLE15=Dwight Yoakam - Honky Tonk Man
EXTD=
EXTT0=
EXTT1=
EXTT2=
EXTT3=
EXTT4=
EXTT5=
EXTT6=
EXTT7=
EXTT8=
EXTT9=
EXTT10=
EXTT11=
EXTT12=
EXTT13=
EXTT14=
EXTT15=
PLAYORDER=
